# xmcd
#
# Track frame offsets: 
#        150
#        12399
#        26572
#        41804
#        51807
#        65240
#        84760
#        96740
#        109224
#        121441
#        133374
#        151707
#        170859
#        182881
#
# Disc length: 2634 seconds
#
# Revision: 0
# Processed by: cddbd v1.5.2PL0 Copyright (c) Steve Scherf et al.
# Submitted via: ExactAudioCopy v0.95a3
#
DISCID=cc0a480e
DTITLE=The Destries - We Love You Baby
DYEAR=2007
DGENRE=Folk/Rock
TTITLE0=Suburban Girl
TTITLE1=She's The One
TTITLE2=All Those Things
TTITLE3=Lament
TTITLE4=Talk Radio
TTITLE5=Caroline
TTITLE6=Another Raincoat
TTITLE7=Erica's Wasted
TTITLE8=Yeah
TTITLE9=Coleridge
TTITLE10=Phone Every Day
TTITLE11=Miss '65
TTITLE12=Surf Chica
TTITLE13=Indie Film
EXTD=www.myspace.com/thedestries
EXTT0=
EXTT1=
EXTT2=
EXTT3=
EXTT4=
EXTT5=
EXTT6=
EXTT7=
EXTT8=
EXTT9=
EXTT10=
EXTT11=
EXTT12=
EXTT13=
PLAYORDER=
